PathFileType	4	(X/Y/Z)	C:\Users\°ÂÌØÂü\Desktop\20210112\bx_y_10_901-Unnamed.trc
DataRate	CameraRate	NumFrames	NumMarkers	Units	OrigDataRate	OrigDataStartFrame	OrigNumFrames
50.00	50.00	       8	0	mm	50.00	398	       530
Frame#	Time	
		

398	7.940	-147.98883	133.76974	1359.77771	-837.92340	-77.97712	708.91187	-747.48169	-19.58525	800.98328	-665.69684	298.93118	158.84833	-856.48468	270.10144	739.29883	-823.66528	262.67606	866.30835	-349.33615	273.15991	1159.74048	-339.61682	-52.89808	1165.24133	-838.66400	238.63106	564.31079	-859.25214	252.61429	484.93619	-517.96155	-72.43932	142.87239	-818.50641	-49.35240	608.97705	-605.78448	20.20380	167.55298	-679.22955	50.59045	164.16579	-722.71100	157.51691	222.42679	-777.02759	227.51573	201.53484	-597.67639	221.72939	173.44495	-882.54834	296.11572	144.59166	-561.97461	257.33264	164.44897	-817.41870	-87.68727	861.83527	-627.85907	306.50693	161.51109	-528.02209	304.13187	146.35739	-731.63910	67.14257	222.68652	-801.74481	134.97899	564.12067	-773.57013	-16.88012	200.80281	-799.93512	44.93574	171.90465	-801.61963	177.69398	180.83276	-844.72925	-55.75431	470.22723	-562.78485	-36.27720	163.28876	-663.17627	-69.99116	160.43144	-876.87811	-78.05750	141.44031	-921.21991	67.94291	1097.67017	-759.32062	197.41367	803.57056	-819.66339	-44.48672	557.61969	-800.55908	63.10861	568.89453	-621.50256	-80.62646	156.54221	-775.03241	198.45854	534.06274	-852.94122	242.31183	622.26666				-678.47443	176.00461	163.02812	
399	7.960	-157.71835	133.64209	1383.68066	-836.62183	-77.06834	709.07941	-745.59271	-19.65237	801.26447	-665.79315	299.36722	159.31104	-855.06085	270.31564	739.98499	-821.70728	262.53912	866.89081				-343.28491	-52.87718	1182.08179	-837.49725	238.39833	564.00616	-858.69470	252.59056	485.34338	-518.05188	-72.41664	142.94200	-816.79114	-48.94265	608.78113	-605.82941	20.20950	167.79182	-679.45966	50.68201	164.23358	-722.69250	157.54369	222.32330	-777.07263	227.50897	201.44519	-597.69189	221.71384	173.24684	-882.64197	296.04980	144.59039	-562.11884	257.23801	164.42619	-815.39563	-87.59791	862.26593	-627.65179	306.39938	161.32791	-528.03540	304.04254	146.41190	-731.44135	67.06807	222.89552				-773.74426	-16.84924	201.08171	-799.82001	44.96210	171.90317	-801.50012	177.61348	181.02422	-843.97394	-56.45695	471.08032	-562.73450	-36.30937	163.14458	-663.20044	-69.89600	160.37723	-876.64392	-78.09219	141.22479	-921.97906	68.08961	1096.78076	-757.62549	196.70442	804.54871	-818.91913	-44.33543	557.87567				-621.65094	-80.92587	156.69751	-774.36365	198.15419	533.88727	-851.82178	242.08784	622.67883	-800.92755	135.02753	564.08606	-678.43567	176.13913	162.78676	
400	7.980	-168.19110	133.46013	1407.56030	-834.75220	-76.14201	708.89032	-743.94806	-19.44761	801.96283	-665.79279	299.23447	159.27603	-853.09375	269.78012	740.92877	-819.68781	262.65036	867.49786	-357.88382	274.76013	1192.91333	-347.46252	-53.85056	1198.95605	-836.83478	238.34076	564.30927	-857.75647	252.80707	485.59723	-518.10132	-72.29942	142.68965	-815.31903	-48.90980	609.52924	-605.77167	20.22457	167.75833	-679.18115	51.05441	164.46692	-722.26465	157.54900	222.31805	-776.89813	227.44963	201.47565	-597.42688	221.93851	173.62119	-882.46161	295.93231	144.61980	-561.96454	257.21585	164.43066	-813.23273	-87.03019	862.33276	-627.72998	306.30579	161.23039	-528.15881	304.10226	146.41420	-731.38525	67.09602	222.72588				-773.77423	-16.75693	201.16779	-799.78802	45.09430	171.95030	-801.40967	177.45477	180.98991	-843.01324	-56.16479	471.25217	-562.70654	-36.25799	163.21706	-663.19458	-70.03379	160.24083	-876.64392	-78.09219	141.22479	-921.92334	67.68948	1096.21094	-755.60333	196.91031	805.32849	-817.29675	-44.57653	558.91858				-621.46448	-80.65697	156.37663	-773.02515	198.04103	534.15509	-850.50677	241.85286	623.12158	-799.07324	134.71725	564.66797	-678.27991	176.15201	162.75668	
401	8.000	-179.32484	133.17714	1431.26086	-832.20898	-75.89445	709.11597	-741.06799	-18.38276	802.36035	-665.86676	299.37781	159.48442	-850.86200	269.97223	741.53668	-817.57495	263.24292	868.31976	-362.56671	276.32294	1209.96960	-352.13120	-53.59802	1215.36597	-835.37323	238.23665	564.88416	-856.37817	252.60844	485.77209	-517.97583	-72.54118	142.77574	-813.53259	-48.58334	609.94031	-605.64282	19.93712	167.93568	-679.02124	50.99060	164.51224	-722.26465	157.54900	222.31805	-776.89813	227.44963	201.47565	-597.74664	222.01808	173.21924	-882.50604	296.12839	144.65137	-561.98029	257.26712	164.70055	-810.77936	-87.12112	863.05255	-627.74005	306.35349	161.29366	-527.99384	304.29190	146.50430	-731.31305	67.06852	222.61038				-773.77032	-16.65119	201.25687	-799.73602	45.19888	171.92680	-801.41406	177.34418	180.97485	-841.67957	-56.04546	471.59647	-562.73450	-36.30937	163.14458	-663.41724	-69.98878	160.27728	-876.51947	-78.20551	141.41145	-922.22833	67.99812	1095.69934	-754.47174	197.45869	806.01965	-815.93787	-43.97436	558.76642				-621.43127	-80.90940	156.63693	-772.13812	198.12759	534.03937	-849.27606	241.50179	623.85291	-798.05347	135.05502	564.91376	-678.47443	176.00461	163.02812	
402	8.020	-191.47426	132.52473	1454.62512	-829.83777	-75.53730	709.99078	-738.81073	-17.67821	803.61884	-665.89056	299.46008	159.60011	-848.65741	269.96405	742.31097	-815.13757	262.49319	868.35059	-367.39224	277.66745	1227.93860	-357.13120	-53.89540	1232.62915	-834.40759	238.62225	564.28156	-855.58075	252.73482	486.29443	-518.10211	-72.31660	142.89677	-811.80774	-48.27606	610.20203	-605.63141	19.86079	167.89767	-679.33075	50.68163	164.40115	-721.79053	157.27641	222.55487	-776.90588	227.32613	201.35110	-597.58575	221.99347	173.51788	-882.69482	296.08508	144.61162	-561.93781	257.40134	164.75467	-808.44598	-86.81598	863.42560	-627.84357	306.26297	161.24815	-528.08337	304.25562	146.55829	-731.02612	67.10107	222.29707	-757.25275	2.56331	524.78180	-773.77032	-16.65119	201.25687	-799.72321	45.09032	172.01392	-801.44049	177.39915	180.93135	-840.61694	-55.35239	471.74902	-562.76099	-36.37482	163.21295	-663.29785	-70.07044	160.26474	-876.51947	-78.20551	141.41145	-921.97467	68.00589	1095.15796	-751.68500	197.19072	806.70679	-814.54370	-44.10893	559.17487				-621.57715	-80.87443	156.56389	-770.61432	198.44717	534.35760	-847.34216	241.24417	624.17902	-796.71240	135.20815	564.95184	-678.20398	176.16731	162.61334	
403	8.040	-204.39569	131.80930	1478.27246	-827.08978	-75.27210	710.39386	-736.76941	-18.43240	803.81055	-665.86676	299.37781	159.48442	-846.11230	270.36349	743.14191	-812.90887	262.88766	869.68091	-373.42517	278.43390	1244.72803				-832.31744	239.16579	565.61578	-854.20325	252.81578	486.46234	-518.00281	-72.44112	142.65874	-809.88763	-48.00190	610.41138	-605.67773	19.77460	168.10568	-679.16559	50.44824	164.25819	-721.35742	156.87007	222.35336	-776.90588	227.32613	201.35110	-597.57001	222.01659	173.41225	-882.52155	296.05740	144.66100	-561.93048	257.41220	164.73862				-627.84338	306.43497	161.41795	-528.05615	304.23892	146.58977	-730.69000	66.59367	222.65793	-756.37122	2.58527	524.68848	-773.84314	-16.69632	201.70651	-799.82990	45.30033	172.32193	-801.44049	177.39915	180.93135	-839.16187	-55.86991	472.28693	-562.61108	-36.52626	163.33798	-663.39117	-70.05696	160.15547	-876.51947	-78.20551	141.41145	-922.16785	68.43587	1094.51514	-749.75098	196.92616	807.82507	-812.86218	-44.00258	559.62665				-621.61133	-80.82736	156.52867	-769.46521	198.09044	534.26874	-845.77325	241.57767	625.66815	-795.58929	135.49310	565.43286	-678.20398	176.16731	162.61334	
404	8.060	-218.15050	130.76682	1501.08008	-825.38947	-74.38314	710.59930	-734.46979	-18.10455	803.92242	-665.99670	299.40411	159.54718	-843.53735	270.34143	743.69360	-810.33936	262.72995	869.87927	-379.23550	278.82315	1261.62073	-368.47885	-54.72415	1266.18591	-831.04242	239.38643	565.77716	-853.15881	252.69978	486.92462	-518.10992	-72.40217	142.58037	-808.25006	-47.75815	611.12122	-605.69397	19.66447	168.29948	-679.16559	50.44824	164.25819	-721.35400	156.90697	222.27483	-776.71185	227.36310	201.46304	-597.37610	222.01555	173.43762	-882.50342	296.22003	144.72592	-562.02332	257.44312	164.92871				-627.84338	306.43497	161.41795	-528.08832	303.93790	146.41830	-730.54138	66.67210	222.22340	-754.39685	2.30472	525.10089	-773.84314	-16.69632	201.70651	-799.86902	45.06071	171.92087	-801.22614	177.17845	180.87680	-838.28424	-55.94493	473.03592	-562.63922	-36.35301	163.11507	-663.49542	-70.28709	160.05957	-876.51947	-78.20551	141.41145	-921.84778	68.79349	1093.66199				-811.73077	-43.73251	559.53821				-621.75543	-80.97193	156.73729	-767.77411	198.89214	534.69556	-843.91467	241.43671	625.81738	-793.85138	135.45552	565.66632	-678.19641	175.94830	162.41481	
405	8.080	-232.85010	129.60173	1523.65710	-822.97498	-74.10624	711.00336	-731.58124	-18.36321	804.42584	-665.86676	299.37781	159.48442	-840.46301	270.57446	744.42328	-807.53076	262.77432	870.51117	-385.56244	279.20688	1278.33411	-375.33926	-55.45548	1282.91357	-829.12494	239.31555	566.12439	-852.11407	252.93082	487.50217	-517.94891	-72.64120	142.89276	-806.16870	-47.42839	611.17963	-605.69611	19.45642	168.45667	-679.42657	50.50104	164.24680	-721.14417	156.99425	222.22267	-776.70129	227.46300	201.40314	-597.51154	222.01401	173.66586	-882.66138	296.22351	144.66956	-562.09845	257.50848	165.03191	-791.05988	63.03832	570.39648	-627.82867	306.50449	161.56914	-528.01184	304.25919	146.40526	-730.40009	66.79623	221.78261	-753.00909	2.41571	525.09601	-774.04279	-16.40239	201.59251	-799.79913	45.15184	171.82039	-801.01459	177.27469	180.96022	-837.14240	-55.61776	473.18344	-562.49695	-36.44017	163.30049	-663.53027	-70.23026	160.05482	-876.59595	-78.19744	141.35904	-921.06256	68.50077	1092.89709	-744.04187	197.40457	808.70740	-809.66058	-43.46910	559.85950				-621.52325	-81.01109	156.47276	-766.53302	199.03656	534.75549	-842.14893	241.18115	626.31183	-792.30438	134.66295	566.02368	-678.23322	175.83606	162.26523	
